<svg xmlns="http://www.w3.org/2000/svg" xmlns:xlink="http://www.w3.org/1999/xlink" width="34" height="34" viewBox="0 0 34 34">
  <defs>
    <clipPath id="clip-Blockchain">
      <rect width="34" height="34"/>
    </clipPath>
  </defs>
  <g id="Blockchain" clip-path="url(#clip-Blockchain)">
    <rect width="34" height="34" fill="#fff"/>
    <g id="Group_59258" data-name="Group 59258" transform="translate(-2528.559 -190.5)">
      <path id="Path_11756" data-name="Path 11756" d="M2555.931,216.614a2.831,2.831,0,1,0,2.833-4.871.631.631,0,0,1-.407-.642c.008-2.587.008-5.115,0-7.515a.647.647,0,0,1,.416-.671,2.831,2.831,0,1,0-2.851-4.861.582.582,0,0,1-.7.041c-1.976-1.149-4.068-2.358-6.586-3.8a.58.58,0,0,1-.33-.621,2.715,2.715,0,0,0-1.319-2.7,2.64,2.64,0,0,0-3,0,2.711,2.711,0,0,0-1.318,2.7.578.578,0,0,1-.33.62c-2.535,1.455-4.628,2.664-6.586,3.8a.576.576,0,0,1-.7-.042,2.7,2.7,0,0,0-3-.2,2.676,2.676,0,0,0-1.494,2.573,2.7,2.7,0,0,0,1.669,2.5.585.585,0,0,1,.388.589c-.008,2.441-.008,5,0,7.615a.58.58,0,0,1-.379.6,2.833,2.833,0,1,0,2.811,4.887l.031-.022a.525.525,0,0,1,.638-.052c2.2,1.283,4.4,2.548,6.643,3.839a.552.552,0,0,1,.309.6,2.8,2.8,0,0,0,.988,2.479,3.378,3.378,0,0,0,1.458.673h.728l0,0a.737.737,0,0,1,.15-.05,2.836,2.836,0,0,0,2.311-3.067.6.6,0,0,1,.334-.654c2.094-1.2,4.3-2.474,6.558-3.787A.6.6,0,0,1,2555.931,216.614Zm2.944-2.31a1.27,1.27,0,0,1-.375.915,1.288,1.288,0,0,1-.92.386h-.006a1.274,1.274,0,0,1-1.276-1.278h0a1.28,1.28,0,0,1,1.288-1.3h.005A1.3,1.3,0,0,1,2558.875,214.3Zm-1.293-15.243h0a1.284,1.284,0,0,1,.922.392,1.269,1.269,0,0,1,.37.918,1.3,1.3,0,0,1-1.291,1.265h0a1.288,1.288,0,0,1,0-2.576Zm-13-6.606a1.276,1.276,0,0,1,.909-.379h.008a1.295,1.295,0,0,1,1.28,1.317,1.292,1.292,0,0,1-1.289,1.259h-.006a1.286,1.286,0,0,1-.9-2.2Zm-12.48,7.89a1.274,1.274,0,0,1,.387-.91,1.289,1.289,0,0,1,.91-.375h.021a1.275,1.275,0,0,1,1.26,1.292h0a1.281,1.281,0,0,1-1.29,1.283h-.018A1.293,1.293,0,0,1,2532.1,200.345Zm1.294,15.26h0a1.3,1.3,0,0,1-.923-.392,1.269,1.269,0,0,1-.369-.917,1.3,1.3,0,0,1,1.291-1.266h0a1.288,1.288,0,0,1,0,2.576Zm12.1,6.984h0a1.295,1.295,0,0,1-1.288-1.3,1.29,1.29,0,0,1,1.284-1.271h0a1.288,1.288,0,0,1,.005,2.576Zm8.943-7.345c-2.056,1.179-4.211,2.422-6.589,3.8a.656.656,0,0,1-.328.105.589.589,0,0,1-.35-.131,2.765,2.765,0,0,0-3.359,0,.547.547,0,0,1-.677.026c-2.429-1.408-4.585-2.651-6.59-3.8a.592.592,0,0,1-.333-.623,2.768,2.768,0,0,0-1.705-2.908.54.54,0,0,1-.346-.555c0-2.489,0-5.063,0-7.649a.543.543,0,0,1,.342-.557,2.775,2.775,0,0,0,1.709-2.907.592.592,0,0,1,.33-.625c2.36-1.353,4.515-2.6,6.588-3.8a.571.571,0,0,1,.7.044,2.791,2.791,0,0,0,3.309,0,.594.594,0,0,1,.734-.03c2.339,1.36,4.475,2.594,6.529,3.771a.635.635,0,0,1,.36.674,2.773,2.773,0,0,0,1.707,2.873.56.56,0,0,1,.343.591q0,1.448,0,2.9v1.877c0,.909,0,1.85,0,2.774a.621.621,0,0,1-.407.652,2.791,2.791,0,0,0-1.645,2.878A.593.593,0,0,1,2554.435,215.243Z" fill="#2966ff"/>
      <path id="Path_11757" data-name="Path 11757" d="M2613.045,268.767c-2.381-1.359-4.776-2.733-7.119-4.084a.227.227,0,0,0-.11-.04.241.241,0,0,0-.116.042c-2.5,1.443-4.82,2.773-7.089,4.068a.245.245,0,0,0-.16.267c.009,1.049.008,2.114.007,3.145q0,.524,0,1.047t0,1.052c0,1.029,0,2.093-.007,3.141,0,.142.027.189.162.266,2.291,1.307,4.676,2.676,7.089,4.068a.177.177,0,0,0,.227,0c2.383-1.374,4.778-2.748,7.119-4.083a.2.2,0,0,0,.127-.221c-.007-2.831-.007-5.673,0-8.449A.2.2,0,0,0,2613.045,268.767Zm-8.007,8.876V279.5l-.315-.143-.095-.042a1.567,1.567,0,0,1-.162-.077l-.526-.3c-1.177-.674-2.394-1.372-3.586-2.067a.677.677,0,0,1-.336-.5c-.012-1.438-.011-2.854-.011-4.354V270.63l2.056,1.179.692.4c.622.357,1.264.727,1.9,1.083a.673.673,0,0,1,.391.655C2605.035,275.178,2605.036,276.431,2605.038,277.644Zm.759-5.557a.414.414,0,0,1-.2-.048c-1.238-.7-2.446-1.4-3.725-2.13l-1.022-.587.3-.2.09-.063c.059-.041.108-.076.166-.109l1.361-.782q1.35-.774,2.7-1.551a.605.605,0,0,1,.675-.032c1.014.591,2.049,1.185,3.051,1.759l1.121.644a1.241,1.241,0,0,1,.114.076l.081.057.29.2-1.03.591c-1.265.725-2.458,1.41-3.676,2.1A.6.6,0,0,1,2605.8,272.087Zm5.816,4.284a.572.572,0,0,1-.252.454c-1.382.8-2.791,1.61-4.155,2.39l-.16.092a.345.345,0,0,1-.166.04l-.044,0-.248.028V277.65c0-1.225,0-2.492.008-3.738a.7.7,0,0,1,.293-.554c1.183-.693,2.391-1.385,3.56-2.055l.666-.382a.769.769,0,0,1,.123-.052l.078-.029.3-.118v1.257C2611.62,273.489,2611.62,274.915,2611.613,276.37Z" transform="translate(-60.326 -65.881)" fill="#2966ff"/>
    </g>
  </g>
</svg>
