<svg xmlns="http://www.w3.org/2000/svg" xmlns:xlink="http://www.w3.org/1999/xlink" width="34" height="34" viewBox="0 0 34 34">
  <defs>
    <clipPath id="clip-IDO_ALLOCATION">
      <rect width="34" height="34"/>
    </clipPath>
  </defs>
  <g id="IDO_ALLOCATION" data-name="IDO ALLOCATION" clip-path="url(#clip-IDO_ALLOCATION)">
    <rect width="34" height="34" fill="#fff"/>
    <g id="Group_59264" data-name="Group 59264" transform="translate(-5.125 -18.121)">
      <g id="Group_59263" data-name="Group 59263" transform="translate(5.125 18.122)">
        <g id="Group_59262" data-name="Group 59262" transform="translate(0 0)">
          <path id="Path_11760" data-name="Path 11760" d="M3345.927,275.437a.535.535,0,0,1,.571.463,5.335,5.335,0,0,0,5.122,3.917c4.318.01,8.54.018,12.709,0a5.069,5.069,0,0,0,4.447-2.421,8.06,8.06,0,0,0,.6-1.2c.088-.2.18-.413.28-.624l.061-.128h.141l.335,0c.266,0,.566,0,.86,0a3.962,3.962,0,0,0,2.688-1.069,4.211,4.211,0,0,0,1.31-3.308,6.643,6.643,0,0,0-6.727-6.736q-1.156-.006-2.312-.005l-.882,0a7.17,7.17,0,0,0-2.6.344,3.693,3.693,0,0,1-1.412.225c-1.544-.012-3.116,0-4.636.011q-1.024.008-2.05.014a.994.994,0,0,1-.412-.084,6.23,6.23,0,0,0-2.5-.5c-1.321-.009-2.615-.015-3.93,0a6.633,6.633,0,0,0-6.278,4.815c-.074.263-.13.54-.185.807-.025.122-.049.243-.076.364v1.615l.006.015a.852.852,0,0,1,.054.165,3.976,3.976,0,0,0,2.586,3.081,5.3,5.3,0,0,0,2.2.242Zm20.036-9.383c.4.016.818,0,1.218-.012a8.123,8.123,0,0,1,2.6.193,4.922,4.922,0,0,1,3.559,4.711v.127a4.246,4.246,0,0,1-.028.679,2.291,2.291,0,0,1-2.07,1.971c-.17.016-.339.021-.51.021-.138,0-.276,0-.418-.006s-.287-.007-.436-.007h-.211l-.013-.21a9.205,9.205,0,0,0-3.836-7.062l-.572-.432Zm-10.7.521c1.924-.01,3.707-.01,5.448,0a7.323,7.323,0,0,1,7.235,7.124,6.851,6.851,0,0,1-.1,1.622,3.563,3.563,0,0,1-3.564,2.794c-1.462.006-2.948,0-4.386,0-.636,0-1.273,0-1.909,0-.6,0-1.217-.006-1.812-.012-1.341-.013-2.729-.026-4.087.029-.065,0-.13,0-.2,0a3.9,3.9,0,0,1-2.8-1.093,3.987,3.987,0,0,1-1.1-3.026,7.41,7.41,0,0,1,3.175-6.139A6.967,6.967,0,0,1,3355.26,266.574Zm-9.935,7.17a2.617,2.617,0,0,1-1.461-.35,2.258,2.258,0,0,1-1.1-1.721,5.076,5.076,0,0,1,1.053-3.773,4.95,4.95,0,0,1,3.356-1.83,14.144,14.144,0,0,1,1.948-.034c.3.008.617.017.933.017h.68l-.546.4a9.1,9.1,0,0,0-3.886,7.061l-.014.208-.209,0c-.119,0-.239,0-.357.008S3345.459,273.744,3345.325,273.744Z" transform="translate(-3341.05 -245.831)" fill="#2966ff"/>
          <path id="Path_11761" data-name="Path 11761" d="M3368.405,256.777a4.431,4.431,0,0,0,3.67-3.268,12.485,12.485,0,0,0,.526-5.089,3.893,3.893,0,0,0-2.659-3.535,6.777,6.777,0,0,0-3.074-.38c-.229.019-.455.047-.693.077-.11.014-.22.028-.33.04l-.18.021-.084-.245-.047-.132-.007-.021c-.023-.064-.046-.129-.072-.192a5.557,5.557,0,0,0-4.432-3.417c-.3-.06-.612-.1-.915-.144-.138-.019-.276-.037-.415-.058h-1.445c-.166.027-.33.052-.5.077-.36.053-.731.108-1.085.192a5.407,5.407,0,0,0-4.24,3.628.625.625,0,0,1-.062.123c-.007.012-.015.024-.022.038l-.07.127-.144-.011-.061,0a1.266,1.266,0,0,1-.163-.016,7.81,7.81,0,0,0-2.764.017,4.074,4.074,0,0,0-3.636,3.758,12.451,12.451,0,0,0,.482,5.03,4.676,4.676,0,0,0,5.683,3.356,4.315,4.315,0,0,0,2.45-1.363l.16-.173.164.167a6.073,6.073,0,0,0,4.55,1.781h.054a6.019,6.019,0,0,0,4.549-1.845l.166-.174.162.178A4.694,4.694,0,0,0,3368.405,256.777Zm-3.5-3.544a13.854,13.854,0,0,0,.907-4.483c.033-.569.053-1.184.063-1.937a.476.476,0,0,1,.44-.524,6.218,6.218,0,0,1,2.662.05,2.491,2.491,0,0,1,1.973,2.568c.008.205.006.411,0,.61v.087l.1.019-.034.216-.118.742c-.1.668-.213,1.359-.33,2.038a2.831,2.831,0,0,1-.2.615l-.014.036a2.778,2.778,0,0,1-2.821,1.884h-.023a2.7,2.7,0,0,1-2.545-1.33A.727.727,0,0,1,3364.9,253.234Zm-11.864.776a2.481,2.481,0,0,1-1.485,1.02,4.976,4.976,0,0,1-1.054.122,2.837,2.837,0,0,1-2.863-2.208,7.614,7.614,0,0,1-.311-1.31c-.066-.495-.1-.983-.14-1.454-.014-.187-.028-.367-.043-.541V249.6c.009-.158.014-.307.021-.451a7.284,7.284,0,0,1,.064-.867,2.215,2.215,0,0,1,1.428-1.767,5.878,5.878,0,0,1,3.059-.26.46.46,0,0,1,.4.516v.01c.012.255.021.509.032.765.029.738.061,1.5.124,2.245a10.952,10.952,0,0,0,.854,3.5A.653.653,0,0,1,3353.037,254.009Zm10.45-1.852a4.307,4.307,0,0,1-2.917,3.071,6.658,6.658,0,0,1-1.744.253,4.3,4.3,0,0,1-3.059-1.215,5.94,5.94,0,0,1-1.578-3.209,19.716,19.716,0,0,1-.343-5.211,3.655,3.655,0,0,1,3.149-3.468,8.182,8.182,0,0,1,4.333.1,3.662,3.662,0,0,1,2.837,3.649c.013.31.01.615.006.937,0,.149,0,.3,0,.455v.009A16.172,16.172,0,0,1,3363.486,252.157Z" transform="translate(-3342.043 -240.434)" fill="#2966ff"/>
        </g>
      </g>
    </g>
  </g>
</svg>
