<svg width="24" height="24" viewBox="0 0 24 24" fill="none" xmlns="http://www.w3.org/2000/svg">
<g id="Group 64582">
<g id="Group 64581">
<circle id="Ellipse 892" cx="12" cy="12" r="12" fill="url(#paint0_linear_202_3168)"/>
<path id="Vector" d="M11.9704 5C10.0536 5 8.60029 5.96889 8.09478 7.59074C8.01053 7.83296 8 8.07519 8 8.16997C8 8.86504 8.5371 9.38109 9.26377 9.38109C9.82194 9.38109 10.2748 9.05461 10.517 8.45432C10.7592 7.7803 11.2121 7.45383 11.8966 7.45383C12.7286 7.45383 13.0972 8.04359 13.0972 8.63335C13.0972 9.14939 12.9919 9.51799 12.36 10.2763L11.3174 11.5295C10.6961 12.2456 10.4854 12.8038 10.4854 13.7306V13.8675C10.4854 14.6468 11.0331 15.1945 11.8124 15.1945C12.5812 15.1945 13.1394 14.6363 13.1394 13.8675V13.7516C13.1394 13.4146 13.2025 13.2251 13.5711 12.7827L14.7191 11.4242C15.5089 10.4869 15.8354 9.67597 15.8354 8.61229C15.8354 6.48494 14.2452 5 11.9704 5Z" fill="currentcolor"/>
</g>
<path id="Vector_2" d="M11.8559 15.7344C10.9818 15.7344 10.2656 16.4505 10.2656 17.3246C10.2656 18.1987 10.9818 18.9149 11.8559 18.9149C12.7195 18.9149 13.4461 18.1882 13.4461 17.3246C13.4461 16.4716 12.7195 15.7344 11.8559 15.7344Z" fill="currentcolor"/>
</g>
<defs>
<linearGradient id="paint0_linear_202_3168" x1="12" y1="0" x2="12" y2="24" gradientUnits="userSpaceOnUse">
<stop stop-color="#1463D6"/>
<stop offset="1" stop-color="#092E63"/>
</linearGradient>
</defs>
</svg>
