<svg xmlns="http://www.w3.org/2000/svg" xmlns:xlink="http://www.w3.org/1999/xlink" width="34" height="34" viewBox="0 0 34 34">
  <defs>
    <clipPath id="clip-Lockups">
      <rect width="34" height="34"/>
    </clipPath>
  </defs>
  <g id="Lockups" clip-path="url(#clip-Lockups)">
    <rect width="34" height="34" fill="#fff"/>
    <g id="Group_59261" data-name="Group 59261" transform="translate(2)">
      <g id="Group_59260" data-name="Group 59260" transform="translate(165 117)">
        <g id="Group_59259" data-name="Group 59259" transform="translate(-165 -117)">
          <path id="Path_11758" data-name="Path 11758" d="M2907.282,228.491a7.311,7.311,0,0,0-5.858,7.182c-.006,2.119,0,4.273,0,6.356q0,1.651,0,3.3a6.952,6.952,0,0,0,.185,1.608,7.325,7.325,0,0,0,7.2,5.708c1.827.01,3.685.007,5.482,0l2.478,0h1.826q3.029,0,6.059,0h.106a7.143,7.143,0,0,0,.908-.038,7.34,7.34,0,0,0,6.521-7.43q0-2.3,0-4.6,0-2.4,0-4.792a6.625,6.625,0,0,0-.112-1.359,7.176,7.176,0,0,0-5.8-5.945.619.619,0,0,1-.533-.683c.01-.924.019-2.145,0-3.388a5.676,5.676,0,0,0-5.687-5.73c-1.254-.013-2.405-.023-3.515-.023-1.137,0-2.228.011-3.34.041a5.642,5.642,0,0,0-5.3,5.06,26.976,26.976,0,0,0-.052,2.737c0,.417.012.848.01,1.273A.654.654,0,0,1,2907.282,228.491Zm.65,1.69a6.939,6.939,0,0,1,1.21-.061h.271q3.306,0,6.611,0h3.8c.624,0,.975-.247,1.07-.754a.876.876,0,0,0-.766-1.02c-.109-.01-.225-.01-.346-.009h-1.847c-2.487,0-5.06,0-7.589.007a.729.729,0,0,1-.562-.177.712.712,0,0,1-.159-.535c.017-.481.01-.974,0-1.452a19.4,19.4,0,0,1,.06-2.3,3.82,3.82,0,0,1,3.658-3.4c2.019-.036,4.144-.039,6.688-.011a3.883,3.883,0,0,1,3.923,3.936c.025,1.314.01,2.648-.007,3.938l-.008.788a1.042,1.042,0,0,0,.295.761.831.831,0,0,0,.622.239,5.337,5.337,0,0,1,3.855,1.563,5.613,5.613,0,0,1,1.689,4.106c-.015,2.057-.012,4.15-.009,6.174q0,1.611,0,3.221a5.535,5.535,0,0,1-5.677,5.676q-1.541,0-3.084,0h-7.259q-2.735,0-5.47,0a5.533,5.533,0,0,1-5.712-5.716q0-4.68,0-9.36A5.529,5.529,0,0,1,2907.933,230.18Z" transform="translate(-2901.419 -218.655)" fill="#2966ff"/>
          <path id="Path_11759" data-name="Path 11759" d="M3001.6,358.612a3.278,3.278,0,0,0,1.718-4.008,3.356,3.356,0,0,0-3.706-2.226,3.259,3.259,0,0,0-2.712,2.846,3.128,3.128,0,0,0,1.582,3.23,1.225,1.225,0,0,1,.8,1.4c0,.088,0,.167,0,.238,0,.151,0,.271,0,.391a.922.922,0,0,0,.888.9h0a.925.925,0,0,0,.89-.9l0-.108c.008-.305.015-.594,0-.881A.8.8,0,0,1,3001.6,358.612Zm-1.429-1.484h0a1.539,1.539,0,0,1-1.1-.435,1.459,1.459,0,0,1-.416-1.046,1.506,1.506,0,0,1,.445-1.071,1.537,1.537,0,0,1,1.09-.441h.014a1.512,1.512,0,0,1,1.5,1.478,1.485,1.485,0,0,1-.415,1.074A1.543,1.543,0,0,1,3000.174,357.128Z" transform="translate(-2984.791 -335.414)" fill="#2966ff"/>
        </g>
      </g>
    </g>
  </g>
</svg>
