<svg width="84" height="85" viewBox="0 0 84 85" fill="none" xmlns="http://www.w3.org/2000/svg">
<circle cx="42" cy="42.1328" r="41.5" stroke="#191B4F"/>
<path d="M51.75 43.1016V48.6516C51.75 53.3316 47.385 57.1266 42 57.1266C36.615 57.1266 32.25 53.3316 32.25 48.6516V43.1016C32.25 47.7816 36.615 51.1266 42 51.1266C47.385 51.1266 51.75 47.7816 51.75 43.1016Z" stroke="#2966FF" stroke-width="2.5" stroke-linecap="round" stroke-linejoin="round"/>
<path d="M51.7501 35.6086C51.7552 36.9156 51.3968 38.1984 50.7151 39.3136C49.7485 40.7142 48.4413 41.8456 46.9166 42.6014C45.3919 43.3572 43.7 43.7124 42.0001 43.6336C40.3002 43.7124 38.6082 43.3572 37.0835 42.6014C35.5588 41.8456 34.2516 40.7142 33.2851 39.3136C32.6033 38.1984 32.2449 36.9156 32.2501 35.6086C32.2659 34.4645 32.5288 33.3374 33.0207 32.3045C33.5126 31.2715 34.2219 30.357 35.1001 29.6236C37.024 27.9878 39.4749 27.1034 42.0001 27.1336C44.5223 27.1053 46.9709 27.9835 48.9001 29.6086C49.7773 30.346 50.4858 31.2634 50.9775 32.2986C51.4693 33.3338 51.7327 34.4626 51.7501 35.6086Z" stroke="#2966FF" stroke-width="2.5" stroke-linecap="round" stroke-linejoin="round"/>
<path d="M51.75 35.6085V43.1085C51.75 47.7885 47.385 51.1335 42 51.1335C36.615 51.1335 32.25 47.7885 32.25 43.1085V35.6085C32.25 30.9285 36.615 27.1335 42 27.1335C44.5222 27.1052 46.9708 27.9835 48.9 29.6085C49.7773 30.3459 50.4858 31.2633 50.9775 32.2986C51.4692 33.3338 51.7327 34.4626 51.75 35.6085Z" stroke="#2966FF" stroke-width="2.5" stroke-linecap="round" stroke-linejoin="round"/>
</svg>
