<svg width="84" height="85" viewBox="0 0 84 85" fill="none" xmlns="http://www.w3.org/2000/svg">
<circle cx="42" cy="42.1328" r="41.5" stroke="#191B4F"/>
<rect x="30.25" y="42.8828" width="5.64988" height="14.0087" rx="2.82494" stroke="#2966FF" stroke-width="2.5"/>
<path d="M43.3834 45.4948L42.6161 45.5767L45.8063 42.7698C46.0171 42.5844 46.3397 42.6115 46.5165 42.8295C46.6906 43.0441 46.6549 43.3598 46.4373 43.5301L44.5091 45.0385C44.1839 45.2928 43.7939 45.4509 43.3834 45.4948Z" stroke="#2966FF" stroke-width="2.5"/>
<path d="M45.6924 55.6774H40.3226C38.0432 55.6774 36.1953 53.8296 36.1953 51.5501C36.1953 49.2706 38.0432 47.4228 40.3226 47.4228H49.3538C50.178 47.4228 51.003 47.2928 51.7515 46.9475C55.225 45.3454 56.4795 43.1251 59.7943 41.4213C62.7504 39.9018 62.952 43.5721 60.3824 45.6802L50.1322 54.0893C48.8805 55.1162 47.3115 55.6774 45.6924 55.6774Z" stroke="#2966FF" stroke-width="2.5"/>
<path d="M43.2399 21.4884C46.1579 23.3675 48.0864 24.6705 49.0253 25.3976C49.8324 26.0225 49.5096 32.191 49.5032 33.4221C49.4937 35.1971 48.9209 36.0908 47.0821 36.0908C43.6197 36.0887 40.1572 36.0897 36.6948 36.0939C35.5301 36.0939 34.8813 35.0346 34.8782 33.9003C34.8739 31.3483 34.8739 28.7974 34.8782 26.2475C34.8782 25.9205 35.1176 25.5882 35.5966 25.2507C38.4239 23.2591 40.3767 21.953 41.4549 21.3322C42.0013 21.0218 42.5963 21.0738 43.2399 21.4884ZM48.0632 26.3382L42.667 22.7633C42.5426 22.6811 42.397 22.6357 42.2473 22.6324C42.0976 22.629 41.95 22.668 41.822 22.7446C40.3366 23.6258 38.8375 24.5882 37.3246 25.6319C36.5682 26.1538 36.141 26.3288 36.1346 27.185C36.1262 29.4703 36.1336 31.7556 36.1568 34.0409C36.1631 34.6283 36.5366 34.9189 37.1316 34.9189C40.6024 34.921 44.0005 34.92 47.3258 34.9158C47.4357 34.916 47.5446 34.8949 47.6462 34.8535C47.7479 34.8122 47.8403 34.7514 47.9182 34.6748C47.996 34.5982 48.0579 34.5072 48.1001 34.407C48.1424 34.3068 48.1643 34.1994 48.1645 34.0909C48.1687 31.591 48.1697 29.088 48.1676 26.5819C48.1728 26.5358 48.1658 26.4893 48.1476 26.4466C48.1293 26.4039 48.1002 26.3666 48.0632 26.3382Z" fill="#2966FF"/>
<path d="M43.9105 28.0264L43.4357 27.6483C43.4074 27.6259 43.3842 27.5978 43.3678 27.5657C43.3514 27.5337 43.3422 27.4986 43.3408 27.4627C43.3395 27.4271 43.3462 27.3917 43.3603 27.359C43.3745 27.3262 43.3958 27.297 43.4228 27.2733L43.9988 26.764C44.0179 26.7424 44.0415 26.7251 44.068 26.7133C44.0945 26.7014 44.1232 26.6953 44.1523 26.6953C44.1813 26.6953 44.2101 26.7014 44.2365 26.7133C44.263 26.7251 44.2866 26.7424 44.3058 26.764L46.0591 28.3452C46.1551 28.432 46.2222 28.5454 46.2519 28.6706C46.2816 28.7957 46.2725 28.9268 46.2256 29.0467C46.1788 29.1664 46.0962 29.2693 45.9888 29.3416C45.8814 29.4139 45.7543 29.4521 45.6243 29.4514L38.3719 29.4482C38.3231 29.4483 38.2754 29.4345 38.2344 29.4084C38.1934 29.3824 38.161 29.3452 38.1408 29.3014C38.0734 29.1701 38.0367 29.0256 38.0334 28.8785C38.0302 28.7314 38.0604 28.5854 38.1219 28.4514C38.1434 28.3992 38.1808 28.3548 38.229 28.3246C38.2773 28.2943 38.3338 28.2797 38.3909 28.2827H43.8187C43.849 28.2829 43.8786 28.2738 43.9034 28.2566C43.9282 28.2395 43.947 28.2151 43.9571 28.1869C43.9672 28.1586 43.9682 28.128 43.9598 28.0993C43.9514 28.0705 43.9342 28.0451 43.9105 28.0264Z" fill="#2966FF"/>
<path d="M40.3983 31.4204L40.6768 31.6985C40.6994 31.7145 40.7177 31.7356 40.7301 31.7602C40.7425 31.7847 40.7487 31.8118 40.748 31.8392C40.7474 31.8666 40.74 31.8935 40.7265 31.9174C40.713 31.9414 40.6938 31.9617 40.6705 31.9766L40.1705 32.4266C40.1188 32.4723 40.0521 32.4978 39.9827 32.4984C39.9134 32.499 39.8462 32.4746 39.7938 32.4297C39.241 31.9589 38.7062 31.4704 38.1892 30.9642C38.1163 30.8931 38.0677 30.8013 38.05 30.7017C37.917 29.983 38.4456 29.8299 39.0532 29.8361C41.3109 29.857 43.5369 29.8903 45.7312 29.9361C45.7859 29.9373 45.8399 29.9492 45.8899 29.9711C45.94 29.993 45.9851 30.0245 46.0228 30.0637C46.0604 30.1029 46.0899 30.1491 46.1093 30.1996C46.1288 30.2501 46.138 30.3039 46.1363 30.358C46.1237 30.8434 45.9559 31.0902 45.6331 31.0986C43.9979 31.1423 42.2878 31.1663 40.5028 31.1704C40.2622 31.1704 40.2274 31.2538 40.3983 31.4204Z" fill="#2966FF"/>
</svg>
