<svg width="84" height="85" viewBox="0 0 84 85" fill="none" xmlns="http://www.w3.org/2000/svg">
<circle cx="42" cy="42.1328" r="41.5" stroke="#191B4F"/>
<path d="M44.2952 26.868C50.3285 30.7532 54.3158 33.4474 56.2571 34.9506C57.9258 36.2428 57.2583 48.9966 57.2452 51.5422C57.2256 55.212 56.0412 57.0598 52.2393 57.0598C45.0804 57.0555 37.9215 57.0576 30.7627 57.0663C28.3546 57.0663 27.0131 54.876 27.0065 52.5307C26.9978 47.2543 26.9978 41.9801 27.0065 36.708C27.0065 36.0317 27.5017 35.3447 28.492 34.647C34.3377 30.5292 38.3752 27.8286 40.6045 26.545C41.7344 25.9032 42.9646 26.0109 44.2952 26.868ZM54.2678 36.8953L43.1107 29.5041C42.8534 29.3341 42.5524 29.2401 42.2429 29.2333C41.9334 29.2264 41.6283 29.3069 41.3635 29.4653C38.2923 31.2873 35.1928 33.2772 32.0649 35.4352C30.5009 36.5142 29.6175 36.876 29.6044 38.6462C29.587 43.3713 29.6022 48.0964 29.6502 52.8214C29.6633 54.0361 30.4355 54.637 31.6657 54.637C38.842 54.6413 45.8678 54.6391 52.7431 54.6305C52.9704 54.6309 53.1956 54.5871 53.4057 54.5016C53.6159 54.4162 53.807 54.2906 53.968 54.1323C54.129 53.9739 54.2569 53.7857 54.3442 53.5785C54.4316 53.3714 54.4768 53.1492 54.4772 52.9248C54.486 47.7561 54.4881 42.5809 54.4838 37.3993C54.4944 37.3041 54.4801 37.2078 54.4423 37.1195C54.4045 37.0313 54.3444 36.9541 54.2678 36.8953Z" fill="#2966FF"/>
<path d="M45.6831 40.385L44.7015 39.6033C44.6428 39.5569 44.5949 39.4987 44.561 39.4325C44.5272 39.3663 44.5081 39.2936 44.5052 39.2195C44.5025 39.1459 44.5163 39.0727 44.5456 39.005C44.5749 38.9373 44.619 38.8769 44.6747 38.8279L45.8656 37.7748C45.9053 37.7302 45.9541 37.6945 46.0088 37.67C46.0635 37.6455 46.1229 37.6328 46.183 37.6328C46.2431 37.6328 46.3025 37.6455 46.3572 37.67C46.412 37.6945 46.4608 37.7302 46.5004 37.7748L50.1256 41.044C50.324 41.2237 50.4629 41.4581 50.5243 41.7169C50.5857 41.9756 50.5667 42.2466 50.4698 42.4945C50.3731 42.7421 50.2024 42.9548 49.9803 43.1042C49.7582 43.2537 49.4953 43.3328 49.2265 43.3312L34.2315 43.3247C34.1307 43.3249 34.032 43.2963 33.9473 43.2424C33.8626 43.1886 33.7954 43.1117 33.7538 43.0211C33.6144 42.7497 33.5385 42.451 33.5318 42.1468C33.525 41.8426 33.5874 41.5408 33.7145 41.2637C33.759 41.1557 33.8365 41.064 33.9362 41.0015C34.0359 40.9389 34.1528 40.9087 34.2708 40.9148H45.4933C45.556 40.9153 45.6172 40.8965 45.6685 40.861C45.7198 40.8255 45.7586 40.775 45.7795 40.7167C45.8004 40.6584 45.8023 40.5951 45.785 40.5356C45.7678 40.4762 45.7321 40.4235 45.6831 40.385Z" fill="#2966FF"/>
<path d="M38.4177 47.401L38.9936 47.9761C39.0402 48.0091 39.078 48.0528 39.1037 48.1035C39.1294 48.1542 39.1421 48.2103 39.1408 48.267C39.1395 48.3236 39.1242 48.3791 39.0963 48.4286C39.0684 48.4782 39.0286 48.5202 38.9805 48.5511L37.9466 49.4815C37.8398 49.5759 37.7018 49.6287 37.5585 49.6299C37.4151 49.6311 37.2762 49.5806 37.1679 49.4879C36.0249 48.5145 34.919 47.5044 33.8502 46.4578C33.6995 46.3107 33.5989 46.1211 33.5623 45.915C33.2874 44.429 34.3802 44.1125 35.6366 44.1254C40.3045 44.1684 44.907 44.2374 49.444 44.3321C49.5571 44.3346 49.6686 44.3592 49.7721 44.4045C49.8756 44.4498 49.9689 44.5149 50.0468 44.5959C50.1247 44.677 50.1855 44.7725 50.2258 44.877C50.2661 44.9814 50.2851 45.0927 50.2816 45.2043C50.2554 46.2079 49.9086 46.7183 49.2411 46.7356C45.8602 46.826 42.3244 46.8756 38.6337 46.8842C38.1364 46.8842 38.0644 47.0565 38.4177 47.401Z" fill="#2966FF"/>
</svg>
