<svg width="84" height="85" viewBox="0 0 84 85" fill="none" xmlns="http://www.w3.org/2000/svg">
<circle cx="42" cy="42.1328" r="41.5" stroke="#191B4F"/>
<path d="M40.8622 60.4815L40.2536 59.9032C40.0997 59.757 39.9088 59.655 39.7012 59.6081C39.4936 59.5612 39.2771 59.5712 39.0747 59.6369L38.2763 59.8946C37.6961 60.0829 37.0651 60.041 36.5153 59.7775C35.9656 59.514 35.5396 59.0493 35.3265 58.4808L35.0329 57.7036C34.9577 57.5052 34.83 57.3307 34.6632 57.1986C34.4964 57.0665 34.2968 56.9817 34.0854 56.9532L33.2533 56.8401C32.649 56.7589 32.0997 56.4488 31.7199 55.9746C31.3401 55.5004 31.1592 54.8986 31.2149 54.295L31.2902 53.4678C31.3097 53.2564 31.2712 53.0438 31.1786 52.8525C31.0861 52.6613 30.9431 52.4985 30.7648 52.3818L30.0642 51.9205C29.5551 51.5871 29.1952 51.0712 29.0594 50.4804C28.9237 49.8896 29.0226 49.2695 29.3355 48.7494L29.7646 48.0305C29.8747 47.8493 29.9329 47.6416 29.9329 47.4298C29.9329 47.2181 29.8747 47.0104 29.7646 46.8291L29.3355 46.1118C29.0226 45.592 28.9237 44.9722 29.0595 44.3817C29.1952 43.7912 29.5552 43.2757 30.0642 42.9427L30.7632 42.4814C30.9413 42.365 31.0843 42.2028 31.1771 42.0121C31.2699 41.8214 31.309 41.6092 31.2902 41.3981L31.2149 40.5642C31.1602 39.9606 31.3418 39.3593 31.7219 38.8855C32.1019 38.4116 32.6512 38.1017 33.2553 38.0203L34.0874 37.9084C34.2983 37.8805 34.4975 37.7962 34.6638 37.6643C34.83 37.5325 34.9571 37.3581 35.0313 37.16L35.3273 36.3781C35.5414 35.8104 35.9677 35.3468 36.5173 35.0841C37.0669 34.8213 37.6973 34.7797 38.2771 34.9678L39.0755 35.2255C39.2783 35.2908 39.4951 35.3003 39.7029 35.2532C39.9107 35.206 40.1018 35.1039 40.256 34.9576L40.8622 34.3829C41.1897 34.0695 41.6015 33.8571 42.0478 33.7715V32.7867H38.0999L38.0837 32.7836H36.6409C36.4829 32.7836 36.3315 32.7212 36.2198 32.6102C36.1081 32.4991 36.0453 32.3485 36.0453 32.1915C36.0453 32.0345 36.1081 31.8839 36.2198 31.7729C36.3315 31.6618 36.4829 31.5994 36.6409 31.5994H36.8632L30.0301 23.092C29.9603 23.0049 29.9167 22.9 29.9042 22.7894C29.8918 22.6787 29.911 22.5668 29.9598 22.4665C30.0085 22.3663 30.0848 22.2818 30.1797 22.2227C30.2747 22.1637 30.3845 22.1325 30.4965 22.1328H37.5622C37.6513 22.1328 37.7393 22.1527 37.8196 22.191C37.8999 22.2293 37.9705 22.2851 38.0262 22.3542L42.498 27.9258L46.9694 22.3542C47.0251 22.2851 47.0957 22.2293 47.176 22.191C47.2563 22.1527 47.3443 22.1328 47.4334 22.1328H54.5026C54.6144 22.133 54.7239 22.1644 54.8186 22.2237C54.9132 22.2829 54.9891 22.3674 55.0375 22.4676C55.086 22.5678 55.105 22.6795 55.0925 22.7899C55.08 22.9004 55.0363 23.0051 54.9667 23.092L48.1344 31.6006H48.644C48.8019 31.6006 48.9534 31.663 49.0651 31.774C49.1768 31.8851 49.2395 32.0357 49.2395 32.1927C49.2395 32.3497 49.1768 32.5003 49.0651 32.6113C48.9534 32.7224 48.8019 32.7847 48.644 32.7847H46.9107L46.8949 32.7879H43.237V33.8554C43.5735 33.9612 43.8812 34.1419 44.1369 34.3837L44.7428 34.9584C44.897 35.1047 45.0881 35.2068 45.2959 35.254C45.5037 35.3011 45.7205 35.2915 45.9233 35.2262L46.7201 34.9686C47.2996 34.7803 47.9299 34.8218 48.4792 35.0846C49.0285 35.3474 49.4544 35.8112 49.6679 36.3788L49.9655 37.1608C50.0399 37.3592 50.1672 37.5337 50.3339 37.6656C50.5005 37.7974 50.7002 37.8817 50.9113 37.9092L51.7435 38.0211C52.3477 38.1024 52.897 38.4123 53.2771 38.8861C53.6573 39.36 53.8389 39.9614 53.7842 40.565L53.7085 41.3989C53.6901 41.6095 53.7292 41.8212 53.8218 42.0115C53.9143 42.2019 54.0569 42.3638 54.2344 42.4802L54.9365 42.9431C55.4456 43.276 55.8055 43.7917 55.9409 44.3824C56.0764 44.973 55.9769 45.5928 55.6633 46.1122L55.2321 46.8291C55.1221 47.0104 55.0639 47.2181 55.0639 47.4298C55.0639 47.6416 55.1221 47.8493 55.2321 48.0305L55.6613 48.7494C55.9751 49.2693 56.0745 49.8897 55.9387 50.4807C55.8029 51.0718 55.4424 51.5877 54.9326 51.9205L54.2332 52.3818C54.0548 52.4983 53.9116 52.6607 53.8187 52.8518C53.7258 53.0428 53.6868 53.2553 53.7058 53.4666L53.7814 54.2938C53.8367 54.8976 53.6553 55.4993 53.2751 55.9733C52.8948 56.4473 52.3451 56.757 51.7407 56.8378L50.9086 56.9508C50.6976 56.979 50.4983 57.0635 50.3317 57.1953C50.1652 57.3271 50.0377 57.5012 49.9627 57.6993L49.6651 58.4808C49.4522 59.049 49.0265 59.5133 48.4771 59.7765C47.9276 60.0397 47.2971 60.0815 46.7174 59.893L45.9205 59.6354C45.7179 59.5695 45.5011 59.5594 45.2932 59.6063C45.0854 59.6532 44.8942 59.7553 44.74 59.9016L44.1369 60.4815C43.6958 60.8996 43.1097 61.1328 42.5002 61.1328C41.8907 61.1328 41.3046 60.8996 40.8634 60.4815H40.8622ZM34.0522 47.4318C34.0523 49.0925 34.5478 50.7159 35.4761 52.0966C36.4044 53.4774 37.7237 54.5535 39.2671 55.1889C40.8106 55.8243 42.509 55.9904 44.1474 55.6663C45.7859 55.3421 47.2909 54.5423 48.472 53.3678C49.6532 52.1934 50.4575 50.6972 50.7833 49.0684C51.109 47.4395 50.9416 45.7512 50.3022 44.217C49.6627 42.6827 48.58 41.3714 47.1908 40.4489C45.8017 39.5264 44.1686 39.0341 42.498 39.0342C40.2585 39.0366 38.1114 39.9222 36.528 41.4966C34.9446 43.0709 34.0541 45.2055 34.0522 47.4318ZM38.5326 53.0329C38.4423 52.9681 38.3722 52.8794 38.3301 52.7769C38.2881 52.6743 38.2759 52.5621 38.2949 52.4531L38.9321 48.7569L36.2296 46.1417C36.1512 46.0641 36.0958 45.9664 36.0696 45.8595C36.0434 45.7527 36.0473 45.6407 36.081 45.5359C36.1154 45.4307 36.1788 45.3373 36.264 45.2662C36.3492 45.1951 36.4527 45.1492 36.5628 45.1337L40.2932 44.5936L41.9642 41.2299C42.0187 41.1377 42.0965 41.0612 42.1899 41.0081C42.2833 40.9549 42.389 40.927 42.4966 40.927C42.6042 40.927 42.7099 40.9549 42.8033 41.0081C42.8967 41.0612 42.9745 41.1377 43.029 41.2299L44.698 44.5936L48.4304 45.1337C48.5403 45.1493 48.6436 45.1952 48.7286 45.2662C48.8136 45.3371 48.877 45.4304 48.9114 45.5353C48.9458 45.6402 48.95 45.7527 48.9235 45.8598C48.897 45.967 48.8408 46.0647 48.7612 46.1417L46.0623 48.7617L46.6964 52.4542C46.7151 52.5629 46.7029 52.6745 46.6612 52.7766C46.6194 52.8787 46.5498 52.9671 46.4601 53.032C46.3705 53.0968 46.2644 53.1354 46.1538 53.1434C46.0433 53.1515 45.9327 53.1286 45.8345 53.0774L42.4964 51.3328L39.1564 53.0774C39.0584 53.1288 38.948 53.152 38.8375 53.1444C38.727 53.1367 38.6209 53.0985 38.5311 53.0341L38.5326 53.0329Z" fill="#2966FF"/>
</svg>
