<svg width="84" height="85" viewBox="0 0 84 85" fill="none" xmlns="http://www.w3.org/2000/svg">
<circle cx="42" cy="42.1328" r="41.5" stroke="#191B4F"/>
<path d="M42.0002 57.9594H49.9169C50.9731 58.0231 52.0309 57.862 53.0203 57.4867C54.0096 57.1114 54.9081 56.5305 55.6564 55.7822C56.4046 55.034 56.9856 54.1355 57.3609 53.1461C57.7362 52.1567 57.8973 51.099 57.8335 50.0427V42.126C57.9446 40.2071 57.3177 38.3183 56.0814 36.8465C54.8451 35.3747 53.0929 34.4312 51.1835 34.2094H34.0835C33.6552 34.1837 33.2257 34.2374 32.8169 34.3677C30.9103 34.525 29.1427 35.4279 27.8977 36.8804C26.6527 38.3329 26.0307 40.2178 26.1669 42.126V43.7094" stroke="#2966FF" stroke-width="2.5" stroke-linecap="round" stroke-linejoin="round"/>
<path d="M51.1831 34.2227H34.0831C33.6547 34.197 33.2253 34.2507 32.8164 34.381C33.0265 33.8885 33.3524 33.4539 33.7664 33.1144L38.8331 27.8894C39.349 27.3628 39.9649 26.9444 40.6446 26.6588C41.3243 26.3732 42.0541 26.2261 42.7914 26.2261C43.5287 26.2261 44.2585 26.3732 44.9382 26.6588C45.6179 26.9444 46.2338 27.3628 46.7497 27.8894L49.5997 30.7394C50.5006 31.6919 51.0578 32.9177 51.1831 34.2227Z" stroke="#2966FF" stroke-width="2.5" stroke-linecap="round" stroke-linejoin="round"/>
<path d="M57.8346 42.9214H53.0846C52.2448 42.9214 51.4393 43.255 50.8455 43.8489C50.2516 44.4427 49.918 45.2482 49.918 46.0881C49.918 46.9279 50.2516 47.7334 50.8455 48.3272C51.4393 48.9211 52.2448 49.2547 53.0846 49.2547H57.8346" stroke="#2966FF" stroke-width="2.5" stroke-linecap="round" stroke-linejoin="round"/>
<path d="M31.5586 46.5082C32.5848 46.4982 33.6026 46.693 34.5526 47.0811C35.5026 47.4693 36.3656 48.0429 37.0913 48.7686C37.8169 49.4942 38.3907 50.3573 38.7788 51.3073C39.1669 52.2573 39.3617 53.2752 39.3518 54.3014" stroke="#2966FF" stroke-width="2.5" stroke-linecap="round"/>
<path d="M29.5059 52.4216C30.001 52.4167 30.4922 52.5107 30.9506 52.6979C31.409 52.8852 31.8255 53.162 32.1757 53.5121C32.5259 53.8623 32.8026 54.2788 32.9899 54.7372C33.1771 55.1956 33.2711 55.6868 33.2663 56.182" stroke="#2966FF" stroke-width="2.5" stroke-linecap="round"/>
</svg>
