<svg width="84" height="85" viewBox="0 0 84 85" fill="none" xmlns="http://www.w3.org/2000/svg">
<circle cx="42" cy="42.1328" r="41.5" stroke="#191B4F"/>
<path d="M25.2735 43.8797L25.8553 42.7733L25.2735 43.8797C23.6346 43.0179 23.6801 40.6558 25.351 39.8579L41.9955 31.9092C42.6349 31.6038 43.3809 31.6175 44.0087 31.9462L59.0784 39.8357C60.6995 40.6844 60.6835 43.0103 59.0509 43.8366L42.8338 52.0443C42.184 52.3732 41.4152 52.3672 40.7706 52.0283L25.2735 43.8797Z" stroke="#2966FF" stroke-width="2.5"/>
<path d="M41.35 52.8578L30.3832 46.7807C29.6904 46.3968 28.8468 46.4054 28.162 46.8034L25.1417 48.5589C23.5759 49.469 23.6722 51.7618 25.3088 52.5374L40.8906 59.9214C41.4901 60.2055 42.1844 60.2106 42.7879 59.9353L58.9504 52.5629C60.6395 51.7924 60.7213 49.4231 59.0894 48.5379L55.7889 46.7478M41.35 52.8578L55.7889 46.7478M41.35 52.8578L53.7146 46.7109C54.3708 46.3847 55.1447 46.3984 55.7889 46.7478M41.35 52.8578L55.7889 46.7478" stroke="#2966FF" stroke-width="2.5"/>
<path d="M43.3962 25.3395C43.054 25.1603 42.6472 25.1528 42.2986 25.3193L24.128 33.9969C23.2169 34.4319 23.1921 35.7198 24.0857 36.1897L40.9888 45.0776C41.3403 45.2624 41.7594 45.2656 42.1137 45.0863L59.8178 36.126C60.7079 35.6754 60.7167 34.4073 59.8328 33.9446L43.3962 25.3395Z" fill="#2966FF"/>
</svg>
